<?xml version="1.0" encoding="utf-8"?>
<!-- Generator: Adobe Illustrator 24.0.1, SVG Export Plug-In . SVG Version: 6.00 Build 0)  -->
<svg version="1.1" id="Capa_1" xmlns="http://www.w3.org/2000/svg" xmlns:xlink="http://www.w3.org/1999/xlink" x="0px" y="0px"
	 viewBox="0 0 3709 600" style="enable-background:new 0 0 3709 600;" xml:space="preserve">
<style type="text/css">
	.st0{fill:#1D7D4D;}
	.st1{fill:#FFFFFF;}
	.st2{fill:#00693B;}
	.st3{fill:none;}
	.st4{enable-background:new    ;}
</style>
<g id="_x30_1">
	<path class="st0" d="M300.7,598.6c0,0-36.7-42.9-68.3-51.1c-31.6-8.2-64-10.1-75.7-11.7c-11.7-1.6-29.3-2.7-57.7-22.2
		c-28.5-19.5-60.8-51.9-69-97.9c-8.2-46-4.4-83.7,16.8-131.4c20.2-45.7,26.5-54.2,25.4-80C71,178.5,60.8,164.4,53,146.9
		c-7.8-17.6-11.3-27.3-9.4-39.8c2-12.5,7.4-14.4,26.9-30.4c19.5-16,32.4-29.6,37.8-38.6s13.3-18.3,25.7-15.2
		c12.5,3.1,27.3,13.3,47.6,13.3s33.9-3.9,55-16c21.1-12.1,33.9-19.9,64-19.9c30,0,48.8,10.9,61.2,18.3c12.5,7.4,32.4,17.9,54.2,17.9
		s38.6-9,42.9-10.9c4.3-1.9,9.4-4.3,16-3.1c6.6,1.2,10.9,5.9,15.2,12.1c4.3,6.2,11.3,18.7,26.7,31.4c11.8,9.7,26.8,21.6,29.9,23.6
		c0,0,9.4,5.9,10.5,16.4c1.2,10.5,2.4,14.3-5,30.3c0,0-25.4,48.8-23.9,75c1.9,34.3,20.7,57.7,34.7,95.2c14,37.4,15.6,83.9,3.9,124.4
		c-11.7,40.6-41.7,65.1-54.6,75.3c-12.9,10.1-34.7,23.4-54.2,27.3c-19.5,3.9-65.9,7.8-85,12.9C354.1,551.4,333.1,563.1,300.7,598.6z
		"/>
	<path class="st1" d="M300.7,581c0,0-35-37.2-65.1-45.2c-25.8-6.9-61-8.5-72.1-10c-11.2-1.5-30.2-3.8-57.4-22.4
		c-27.1-18.6-57.1-49.4-64.6-93.3c-7.2-41.9-1.8-79.8,18.3-125.3c19.3-43.5,26.4-51.7,25.3-76.2c-1.1-24.5-7.2-40.4-14.6-57.1
		s-16.3-29.1-14.4-41C58,98.7,62.8,100,81.4,84.8c18.6-15.2,28.5-25.9,33.7-34.5c5.2-8.5,11.7-17.3,23.4-13.3
		c13.8,4.7,27.7,11.4,48.9,11.5c19.3,0.1,31-4.1,51.2-15.2c27.3-15.1,33.5-20.1,62.1-20.1c29.4,0,46.5,10.4,58.4,17.5
		c11.9,7.1,28.8,17.6,50.5,18.3c20.8,0.6,42.7-7.4,46.7-9.2c4.1-1.9,10.6-4.6,15.7-3.1c6.1,1.8,8.3,6.7,12.8,12.3
		c6.8,8.6,10,14.4,24.1,27.1c10.1,9.1,23.5,18.6,26.4,20.5c0,0,9.2,5.9,10.1,13.4c1.4,11.5-2.8,18.3-11.6,35.6
		c0,0-19.5,36.2-18,61.1c1.9,32.7,16.7,56.5,34.2,97.3c15,35,16,91.1,5.7,121.9c-11.1,33.3-36.1,57.9-50.9,70.6
		c-11.9,10.2-33.8,23.1-52.4,26.8c-18.6,3.7-64.5,6.6-82.7,11.5C351.6,539.5,331.5,547.2,300.7,581z"/>
	<path class="st0" d="M300.7,569.3c0,0-27.1-33.9-62.9-42.5c-29.3-7-59-8.2-69.7-9.6c-10.8-1.4-28.1-2.5-54.3-20.5
		c-26.2-18-54.9-47.8-62.5-90.2C43.7,364,50.8,326.6,69,287.6c18.9-40.5,26.1-55.9,25.7-76c-0.5-23.7-4.9-32.7-13.3-56.5
		c-5.9-16.7-18-32.4-16.2-42.3c2-10.5,5.5-6.2,23.5-21c18-14.7,27.6-25.1,32.6-33.3c5-8.3,9.2-15.1,19-11.8
		c11.2,3.8,20.5,9.5,39.2,10c30.7,0.9,41.7-3.9,61.3-14.7C267,27.4,273,22.9,300.7,22.9c28.4,0,43.8,9.7,55.3,16.5
		c11.5,6.8,29,17.2,50,17.7c23.2,0.5,37.1-3,46.5-7.3c3.9-1.8,11.1-5.1,16-3.4c5,1.7,7.7,6.5,13.2,14.4c6.1,8.7,11.1,14.2,21.8,24.9
		c13.5,13.6,27,15.6,30.2,23.6c2.6,6.7-6,22.8-14.5,39.5c0,0-14.3,26.2-13.2,60.1c1.1,31.7,13.8,53.1,32.6,95.4
		c15,33.7,17,87.1,7,117c-10.7,32.2-33.1,55.2-47.4,67.4c-11.5,9.8-33.1,22.7-51.1,26.3c-18,3.6-58.8,5.5-80.7,10.7
		C347.7,530.1,330.5,536.6,300.7,569.3z"/>
	<polygon class="st1" points="113.8,434.7 185.4,434.7 185.4,447.3 161.2,447.3 161.2,478 113.8,478 156.1,457 	"/>
	<polygon class="st1" points="486.2,434.7 414.5,434.7 414.5,447.3 438.8,447.3 438.8,478 486.2,478 443.8,457 	"/>
	<rect x="165.7" y="451.1" class="st1" width="268.4" height="43"/>
</g>
<g id="_x30_2">
	<g>
		<path class="st1" d="M147.6,400.6c0,0,15.9,15.7,46.2,17.8h13.2c0,0,18.9,0.1,44.8-10.8c25.9-11,32.3-17.7,49.1-31.2
			c16.8-13.5,47.8-49.4,57.5-70.4c4.8-10.4,8.9-21.1,12.8-31.2c5.9-15.3,11.2-29.5,14.4-43.4l-3.6,1.7c0,0-0.6,3.9-2.2,9.2
			c-1.5,5.1-3.4,10.8-7.1,21.3c-3.4,9.7-12.2,31.1-17.5,40.7c-5.3,9.6-12.5,20.7-21.9,32c-9.4,11.3-22.7,25.9-36.3,37
			c-15.7,12.8-24.5,18.9-37,24.9c-9.6,4.6-36.8,16.1-54.3,16.1s-13.3,0-13.3,0s-27.4-2.2-42.2-17.3L147.6,400.6z"/>
		<path class="st1" d="M265.2,293.9c5.2-2.7,29.5-15.2,35.3-18.4c6.5-3.6,97.9-50.2,126.6-65.7c0,0,2.4-1.1,2.6-2.1
			c0.2-1-0.3-1.6-0.7-2.1c0,0,15.9-7.9,16.6-8.3c0.7-0.4,1.5-1,1.5-1.6c0-0.5,15.3-6.8,18.9-8.5c3.7-1.7,15.8-7,15.8-7
			s0.9-0.4,1.3,0c0.4,0.4,0.9,0.4,1.6,0.1c3.7-1.8,3.7-1.8,3.7-1.8s0.7-0.4,0.4-1c-0.3-0.6-1.9-3.8-1.9-3.8s-0.1-0.4-1.1,0
			c-1,0.4-4.4,1.9-4.4,1.9s-0.4,0.2-0.2,0.7c0.2,0.5,0.4,0.7,0,0.9c-0.4,0.2-13,5.8-16.2,7.2c-18.1,8-18.1,8-18.1,8
			s-0.6,0.4-1.2-0.5c-0.6-0.9-2.1-4-2.1-4s-0.3-0.3,0.9-0.9c1.2-0.5,18-8.3,26.3-12.1c8.2-3.8,19.2-8.7,19.2-8.7s1.2-0.4,1-1.1
			c-0.2-0.6-1.5-3.3-1.5-3.3s-0.1-0.4-1.3,0c-1.3,0.4-3.8,1.3-3.8,1.3s-0.4,0.1-1.2-0.8c-0.8-0.9-2.9-2.9-4.6-3.4
			c-1.7-0.5-3.3-0.6-4.9,0.3c-1.6,0.9-2.4,1.8-2.6,4.2c-0.2,2.2,0.5,2.9,0.6,3.5c0.1,0.6,0.5,1.4-0.9,1.9c0,0-6.4,3.1-24.7,11.6
			c-18.2,8.5-22.5,10.5-22.5,10.5s-0.9,0.1-1.7-0.3s-2.6,0.8-3.8,1.4c-1.2,0.6-2.6,1.2-2.5,1.8c0,0.6,0.3,1.3-0.9,1.9
			c-1.2,0.6-2.7,1.3-2.7,1.3s-0.5,0.1-0.8-0.3c-0.3-0.4-0.5-0.6-1.7-0.1c-1.1,0.5-2.7,1.5-3,2c-0.2,0.5,0,1.2-0.6,1.5
			c-0.7,0.3-21.3,9.7-24.5,11.1c0,0-0.5,0.3-1.6,0.1c-1.1-0.1-2.4-0.8-3.6-0.6c-1.1,0.2-2,1.7-2.5,2.5c0,0-0.1,0.2-2,0.2
			s-2,0.3-3.3,0.7c-1.2,0.4-29.5,12.3-34.2,14.5c0,0-3.1,1.1-3.7,1.8c-0.6,0.7-1.6,1.8-3.2,1.9c-1.7,0.2-3.5,0-4.5,0.2
			c-1,0.1-4.2,1.4-7.2,2.5c-3.1,1.1-5,1.7-6.4,2c-1.3,0.4-1.5,0.4-1.6,0.9c-0.1,0.5-2.8,3.8-5.3,4.4c0,0-23.6,13.3-32.5,17.4
			c-9,4.1-13.8,6.4-13.8,6.4s-0.4,0.4-1.4-0.6c-0.9-1-2.2-2.1-2.2-2.1s-0.7-0.6-1.8,0.1s-1.6,1.2-1.8,1.7c-0.2,0.4-0.4,1-1.3,1.3
			c-0.9,0.3-5.9,2.7-9,4.1c-3.1,1.5-7.1,3.3-9.7,4.4c0,0-0.6,0.4-1.6-0.2c-1-0.6-1.5-0.7-2.4-0.2c-0.9,0.5-3.9,2.1-4.7,2.6
			c-0.9,0.4-1.2,0.7-0.9,1.4s0.4,0.7,0.4,1.6c0,0.9,0.1,4.7,0,5.1c-0.1,0.4-0.3,1-1.1,2.1s-1.5,2.1-2.6,3.4c-1.1,1.2-5.2,6-8.1,9.9
			c-2.9,3.9-6,8-7.3,9.5c-1.3,1.5-4.1,3.7-5.9,3.7s-4.4,0-4.4,0s-2.4-1-5.2-1s-4.2,0.5-6.8,2.3c-2.6,1.9-31.4,22.5-43.5,30.9
			c-12.1,8.4-21.4,15.3-24.5,17.4c-3.1,2-6.2,3.3-6.9,7.1c-0.7,3.8,3.8,5.3,7.2,7.4c4.4,2.7,8.8,7.4,12.3,13c0,0,4.4,6.8,6.5,11.2
			c2.1,4.4,2.7,9.2,7.1,9.2c4.4,0,7.9-5.7,11.2-10c3.3-4.3,2.6-3.5,2.6-3.5s35.4-43.5,40.9-50.3c5.5-6.8,9.4-11.7,13.7-12.7
			c4.3-1,11.1-1.6,13.5-4.5c2.3-2.9,3-4.1,3.7-8c0.8-4.7,2.5-8,9.6-11c0,0,13.7-7.4,17.6-9.4c0,0,0.5-0.4,0.4,0.5
			c-0.1,0.9-0.1,3.8,0.6,4.7s2.7,3.3,5.7,3.5c0,0,0.2-0.2-0.3-0.8s-2.4-2-3-3.3c-0.6-1.3-0.3-3.6,0-4.7c0.3-1.1,1.2-2,2.2-2.6
			C255.9,298.7,262.9,295.1,265.2,293.9z"/>
		<path class="st1" d="M264.2,294.4c0.5,2.6,1.1,5.3,1.2,8.1c0,4.4-2.4,8.1-2.4,8.1c-5.2,7.5-12.6,8.3-12.6,8.3
			c-12.6,2.3-17.6-8-17.6-8l-0.2-0.4l2.2-1.3c0,0,4.1,7,9.1,7.6c6,0.7,9.3-0.5,11.5-1.9c0,0,4.3-2.3,6.6-7.8c0,0,1.6-4.4,0.3-7.1
			c-1.3-2.7-2.9-3.5-2.9-3.5l4.7-2.4L264.2,294.4z"/>
	</g>
	<g>
		<path class="st1" d="M452.7,400.6c0,0-15.9,15.7-46.2,17.8h-13.2c0,0-18.9,0.1-44.8-10.8c-25.9-11-32.3-17.7-49.1-31.2
			c-16.8-13.5-47.8-49.4-57.5-70.4c-4.8-10.4-8.9-21.1-12.8-31.2c-5.9-15.3-11.2-29.5-14.4-43.4l3.6,1.7c0,0,0.6,3.9,2.2,9.2
			c1.5,5.1,3.4,10.8,7.1,21.3c3.4,9.7,12.2,31.1,17.5,40.7c5.3,9.6,12.5,20.7,21.9,32c9.4,11.3,22.7,25.9,36.3,37
			c15.7,12.8,24.5,18.9,37,24.9c9.6,4.6,36.8,16.1,54.3,16.1c17.6,0,13.3,0,13.3,0s27.5-2.2,42.1-17.3L452.7,400.6z"/>
		<path class="st1" d="M335,293.9c-5.2-2.7-29.5-15.2-35.3-18.4c-6.5-3.6-97.9-50.2-126.6-65.7c0,0-2.4-1.1-2.6-2.1
			c-0.2-1,0.3-1.6,0.7-2.1c0,0-15.9-7.9-16.6-8.3s-1.5-1-1.5-1.6c0-0.5-15.3-6.8-18.9-8.5c-3.7-1.7-15.8-7-15.8-7s-0.9-0.4-1.3,0
			s-0.9,0.4-1.6,0.1c-3.7-1.8-3.7-1.8-3.7-1.8s-0.7-0.4-0.4-1s1.9-3.8,1.9-3.8s0.1-0.4,1.1,0c1,0.4,4.4,1.9,4.4,1.9s0.4,0.2,0.2,0.7
			c-0.2,0.5-0.4,0.7,0,0.9c0.4,0.2,13,5.8,16.2,7.2c18.1,8,18.1,8,18.1,8s0.6,0.4,1.2-0.5c0.6-0.9,2.1-4,2.1-4s0.3-0.3-0.9-0.9
			c-1.2-0.5-18-8.3-26.3-12.1c-8.2-3.8-19.2-8.7-19.2-8.7s-1.2-0.4-1-1.1c0.2-0.6,1.5-3.3,1.5-3.3s0-0.4,1.3,0
			c1.3,0.4,3.8,1.3,3.8,1.3s0.4,0.1,1.2-0.8c0.8-0.9,2.9-2.9,4.6-3.4c1.7-0.5,3.3-0.6,4.9,0.3c1.6,0.9,2.4,1.8,2.6,4.2
			c0.2,2.2-0.5,2.9-0.6,3.5s-0.5,1.4,0.9,1.9c0,0,6.4,3.1,24.7,11.6c18.2,8.5,22.5,10.5,22.5,10.5s0.9,0.1,1.7-0.3s2.6,0.8,3.8,1.4
			c1.2,0.6,2.6,1.2,2.5,1.8c0,0.6-0.3,1.3,0.9,1.9c1.2,0.6,2.7,1.3,2.7,1.3s0.5,0.1,0.8-0.3s0.5-0.6,1.7-0.1c1.1,0.5,2.7,1.5,3,2
			c0.2,0.5,0,1.2,0.6,1.5c0.7,0.3,21.3,9.7,24.5,11.1c0,0,0.5,0.3,1.6,0.1c1.1-0.1,2.4-0.8,3.6-0.6c1.1,0.2,2,1.7,2.5,2.5
			c0,0,0.1,0.2,2,0.2c1.9,0,2,0.3,3.3,0.7c1.2,0.4,29.5,12.3,34.2,14.5c0,0,3.1,1.1,3.7,1.8s1.6,1.8,3.2,1.9c1.7,0.2,3.5,0,4.5,0.2
			c1,0.1,4.2,1.4,7.2,2.5c3.1,1.1,5,1.7,6.4,2c1.3,0.4,1.5,0.4,1.6,0.9c0.1,0.5,2.8,3.8,5.3,4.4c0,0,23.6,13.3,32.5,17.4
			c9,4.1,13.7,6.4,13.7,6.4s0.4,0.4,1.4-0.6c0.9-1,2.2-2.1,2.2-2.1s0.7-0.6,1.8,0.1c1.1,0.7,1.6,1.2,1.8,1.7c0.2,0.4,0.4,1,1.3,1.3
			c0.9,0.3,5.9,2.7,9,4.1c3.1,1.5,7.1,3.3,9.7,4.4c0,0,0.6,0.4,1.6-0.2c1-0.6,1.5-0.7,2.4-0.2c0.9,0.5,3.9,2.1,4.7,2.6
			c0.9,0.4,1.2,0.7,0.9,1.4s-0.4,0.7-0.4,1.6c0,0.9-0.1,4.7,0,5.1c0.1,0.4,0.3,1,1.1,2.1s1.5,2.1,2.6,3.4c1.1,1.2,5.2,6,8.1,9.9
			c2.9,3.9,6,8,7.3,9.5c1.3,1.5,4.1,3.7,5.9,3.7c1.8,0,4.4,0,4.4,0s2.4-1,5.2-1s4.2,0.5,6.8,2.3c2.6,1.9,31.4,22.5,43.5,30.9
			c12.1,8.4,21.4,15.3,24.5,17.4c3.1,2,6.2,3.3,6.9,7.1c0.7,3.8-3.8,5.3-7.2,7.4c-4.4,2.7-8.8,7.4-12.3,13c0,0-4.4,6.8-6.5,11.2
			c-2.1,4.4-2.7,9.2-7.1,9.2c-4.4,0-7.8-5.7-11.2-10c-3.3-4.3-2.6-3.5-2.6-3.5s-35.4-43.5-40.9-50.3c-5.5-6.8-9.4-11.7-13.6-12.7
			c-4.3-1-11.1-1.6-13.5-4.5c-2.3-2.9-3-4.1-3.7-8c-0.8-4.7-2.5-8-9.6-11c0,0-13.7-7.4-17.6-9.4c0,0-0.5-0.4-0.4,0.5
			c0.1,0.9,0.1,3.8-0.6,4.7s-2.7,3.3-5.7,3.5c0,0-0.2-0.2,0.3-0.8s2.4-2,3-3.3c0.6-1.3,0.3-3.6,0-4.7c-0.3-1.1-1.2-2-2.2-2.6
			C344.3,298.7,337.3,295.1,335,293.9z"/>
		<path class="st1" d="M336,294.4c-0.5,2.6-1.1,5.3-1.2,8.1c0,4.4,2.4,8.1,2.4,8.1c5.2,7.5,12.6,8.3,12.6,8.3
			c12.6,2.3,17.6-8,17.6-8l0.2-0.4l-2.2-1.3c0,0-4.1,7-9.1,7.6c-6,0.7-9.3-0.5-11.5-1.9c0,0-4.3-2.3-6.6-7.8c0,0-1.6-4.4-0.3-7.1
			c1.3-2.7,2.9-3.5,2.9-3.5l-4.7-2.4L336,294.4z"/>
	</g>
</g>
<g id="_x30_3">
	<path class="st1" d="M122.2,109.9c0,2.5,0.1,4.5,0.5,9.4c0.4,4.9,2.8,6.8,5,8.1c2.1,1.4,6,1.4,8,1.2c2-0.2,4.9-1.8,6.6-3.7
		s1.8-5,1.8-5v-4.6h-6.5v4.1c0,0-0.2,3.5-3.9,3.5c-4.4,0-4.3-5.1-4.3-5.9V109v1v-8.1c0-0.9-0.1-5.9,4.3-5.9c3.7,0,3.9,3.5,3.9,3.5
		v2.9h6.5V99c0,0-0.1-3.1-1.8-5c-1.7-1.9-4.6-3.5-6.6-3.7c-2-0.2-5.9-0.1-8,1.2c-2.1,1.4-4.5,3.3-5,8.1c-0.4,4.9-0.5,6.9-0.5,9.4
		L122.2,109.9L122.2,109.9z"/>
	<path class="st1" d="M242.6,158.2c0,2.5,0.1,4.5,0.5,9.4c0.4,4.9,2.8,6.8,5,8.1s6,1.4,8,1.2c2-0.2,4.9-1.8,6.6-3.7
		c1.7-1.9,1.8-5,1.8-5v-4.6h-6.5v4.1c0,0-0.2,3.5-3.9,3.5c-4.4,0-4.3-5.1-4.3-5.9v-8.1v1v-8.1c0-0.9-0.1-5.9,4.3-5.9
		c3.7,0,3.9,3.5,3.9,3.5v2.9h6.5v-3.4c0,0-0.1-3.1-1.8-5c-1.7-1.9-4.6-3.5-6.6-3.7c-2-0.2-5.9-0.1-8,1.2c-2.1,1.4-4.5,3.3-5,8.1
		c-0.4,4.9-0.5,6.9-0.5,9.4L242.6,158.2L242.6,158.2z"/>
	<g>
		<polygon class="st1" points="154.6,127.7 147.2,127.7 155.8,91.2 165.1,91.2 173.5,127.7 166.1,127.7 164.2,118.5 156.3,118.5 		
			"/>
		<polygon class="st0" points="160.4,96.6 157.4,113.2 163.1,113.2 		"/>
	</g>
	<g>
		<polygon class="st1" points="211.8,127.7 204.4,127.7 213,91.2 222.3,91.2 230.7,127.7 223.3,127.7 221.4,118.5 213.4,118.5 		"/>
		<polygon class="st0" points="217.5,96.6 214.5,113.2 220.3,113.2 		"/>
	</g>
	<g>
		<path class="st1" d="M184,112.2v15.6h-7V91.2h12.9c0,0,4.2-0.4,7.3,1.8s3.2,5.6,3.2,7.4c0,1.8,0,4.5-1.8,6.6c-1.4,1.6-2.7,2-3.8,2
			c0,0,5.1,0.6,5.2,4.5s0,4.7,0.2,7.6c0.2,2.8,0.7,5.2,1.1,5.9v0.7h-7.4c0,0-0.1-3.6-0.3-6.9c-0.3-4.9-0.3-4.9-0.3-4.9
			s0.3-3.7-3.4-3.7C186.1,112.2,184,112.2,184,112.2z"/>
		<path class="st0" d="M184,101.8v-5.2h0.1h6c0,0,1.2,0,2,1c0.5,0.7,1.1,2.2,1.1,4.1v-0.2c0,1.9-0.6,3.5-1.1,4.1c-0.8,1-2,1-2,1h-6
			H184v-5.2V101.8z"/>
	</g>
	<g>
		<path class="st1" d="M336.2,112.2v15.6h-7V91.2h12.9c0,0,4.2-0.4,7.3,1.8c3.1,2.3,3.2,5.6,3.2,7.4c0,1.8,0,4.5-1.8,6.6
			c-1.4,1.6-2.7,2-3.8,2c0,0,5.1,0.6,5.2,4.5s0,4.7,0.2,7.6c0.2,2.8,0.7,5.2,1.1,5.9v0.7h-7.4c0,0-0.1-3.6-0.3-6.9
			c-0.3-4.9-0.3-4.9-0.3-4.9s0.3-3.7-3.4-3.7C338.4,112.2,336.2,112.2,336.2,112.2z"/>
		<path class="st0" d="M336.3,101.8v-5.2h0.1h6c0,0,1.2,0,2,1c0.5,0.7,1.1,2.2,1.1,4.1v-0.2c0,1.9-0.6,3.5-1.1,4.1c-0.8,1-2,1-2,1
			h-6h-0.1v-5.2V101.8z"/>
	</g>
	<g>
		<path class="st1" d="M234.3,127.7H248c0,0,2.3,0.3,4.7-2c2.5-2.4,2.3-3.7,2.7-5.4c0,0,0.4-6-0.2-7.5c-0.5-1.2-1.4-3.7-4.9-4.6
			c0,0,3.5-1.2,4.1-4.1c0.6-2.8,0.4-5.6,0.1-6.9c-0.3-1.8-1.8-3.9-4.1-5.2c-1.8-0.9-5.5-0.9-5.9-0.9s-10.3,0-10.3,0L234.3,127.7
			L234.3,127.7z"/>
		<path class="st0" d="M241.1,96.6h4.1c0,0,2.5,0,2.5,3.5c0,2.5,0,3.2,0,3.2s-0.2,2.8-3.3,2.8c-3.1,0-3.3,0-3.3,0V96.6z"/>
		<path class="st0" d="M241.1,111.4h4.7c0,0,2.9,0,2.9,4.1c0,2.9,0,3.7,0,3.7s-0.3,3.2-3.8,3.2c-3.6,0-3.8,0-3.8,0L241.1,111.4
			L241.1,111.4z"/>
	</g>
	<g>
		<path class="st1" d="M452.1,114.7c0,4.4-0.6,6.5-1.2,7.6c-1.1,2.2-2,3.3-4.3,4.5c-1.8,0.9-7.2,0.9-7.5,0.9c-0.4,0-10.3,0-10.3,0
			v-17.8V109V91.2c0,0,9.9,0,10.3,0c0.4,0,5.8,0,7.5,0.9c2.3,1.2,3.2,2.3,4.3,4.5c0.6,1.1,1.2,3.2,1.2,7.6V114.7z"/>
		<path class="st0" d="M444.8,110.6c0,0,0,4.1,0,6.6c0,5.3-4.7,5.3-4.7,5.3h-4.7v-11.8v-2.2V96.6h4.7c0,0,4.7,0,4.7,5.3
			c0,2.5,0,6.6,0,6.6V110.6z"/>
	</g>
	<rect x="261.6" y="91.2" class="st1" width="6.8" height="36.6"/>
	<rect x="300.2" y="139.1" class="st1" width="6.8" height="36.6"/>
	<polygon class="st1" points="275.2,91.2 275.2,127.7 281.9,127.7 281.2,101.3 291.1,127.7 298.4,127.7 298.4,91.2 291.3,91.2 
		292.4,118.1 282.3,91.2 	"/>
	<polygon class="st1" points="305,91.2 324,91.2 324,96.6 311.5,96.6 311.5,106 322.9,106 322.9,111.1 311.5,111.1 311.5,122.4 
		324,122.4 324,127.7 305,127.7 	"/>
	<polygon class="st1" points="338.3,139.1 357.3,139.1 357.3,144.5 344.8,144.5 344.8,154 356.2,154 356.2,159.1 344.8,159.1 
		344.8,170.4 357.3,170.4 357.3,175.7 338.3,175.7 	"/>
	<polygon class="st1" points="458.3,91.2 477.3,91.2 477.3,96.6 464.8,96.6 464.8,106 476.2,106 476.2,111.1 464.8,111.1 
		464.8,122.4 477.3,122.4 477.3,127.7 458.3,127.7 	"/>
	<path class="st1" d="M371.3,90.3c2,0,4.5,0.3,6.1,1.3c2.3,1.4,4.8,3.3,5.2,8.1c0.5,4.9,0.6,6.9,0.6,9.4v0.7c0,2.5-0.1,4.5-0.6,9.4
		c-0.5,4.9-3,6.8-5.2,8.1c-1.5,0.9-3.9,1.3-6,1.3l-0.2,0c-2.1,0-4.6-0.3-6.2-1.3c-2.3-1.4-4.8-3.3-5.2-8.1c-0.5-4.9-0.6-6.9-0.6-9.4
		v-0.7c0-2.5,0.1-4.5,0.6-9.4c0.5-4.9,3-6.8,5.2-8.1c1.6-1,4.1-1.3,6.1-1.3L371.3,90.3z"/>
	<path class="st0" d="M371.1,123.1c4.6,0,4.5-5.1,4.5-5.9V109v1v-8.1c0-0.9,0.1-5.9-4.5-5.9h0c-4.6,0-4.5,5.1-4.5,5.9v8.1v-1v8.1
		C366.6,118,366.5,123.1,371.1,123.1L371.1,123.1z"/>
	<path class="st1" d="M403.3,101.9c0-0.9,0.1-5.9-4.2-5.9h0c-4.3,0-4.9,4.9-2.1,7.1c0,0,9,5.8,10.9,7.8c2.5,2.7,3.2,5.6,2.7,8.8
		c-0.7,4.8-2.4,6.4-5.7,8c-1.5,0.8-3.7,1-5.6,1l-0.2,0c-1.9,0-4.3-0.3-5.8-1.3c-2.1-1.4-4.9-2.6-4.9-10.8V115h6.4v2.1
		c0,0.9,0.2,5.9,4.5,5.9h-0.4c4.8,0.3,4.6-3.1,4.5-4.3c0,0,0.1-3.5-6.1-6.9c-6.3-3.4-9-7.4-9-12.2c0-4.9,2.8-6.8,4.9-8.1
		c1.5-1,3.8-1.3,5.7-1.3l0.2,0c1.9,0,4.2,0.3,5.6,1.3c2.1,1.4,4.8,4,4.9,10.3L403.3,101.9z"/>
	<polygon class="st1" points="270.4,139.1 277,139.1 277,153.5 286.8,153.5 286.8,139.6 293.4,139.6 293.4,175.7 286.8,175.7 
		286.8,159.3 276.9,159.3 276.9,175.7 270.4,175.7 	"/>
	<polygon class="st1" points="313.6,139.1 320.6,139.1 320.6,170.7 333.1,170.7 333.1,175.7 313.6,175.7 	"/>
	<path class="st2" d="M356.3,460.4c5.4,0,10.8,0,16.2,0c0,1.2,0,2.3,0,3.5c-5.4,0-10.8,0-16.2,0
		C356.3,462.7,356.3,461.6,356.3,460.4z"/>
	<g>
		<path class="st0" d="M176.8,471c0-2.1,0.3-3.9,1-5.4c0.5-1.1,1.1-2,1.9-2.9c0.8-0.9,1.7-1.5,2.7-1.9c1.3-0.6,2.8-0.8,4.5-0.8
			c3.1,0,5.6,1,7.4,2.9s2.8,4.6,2.8,8c0,3.4-0.9,6-2.8,7.9c-1.8,1.9-4.3,2.9-7.4,2.9c-3.1,0-5.6-1-7.4-2.9
			C177.7,476.9,176.8,474.3,176.8,471z M181.1,470.8c0,2.4,0.5,4.2,1.6,5.4c1.1,1.2,2.5,1.8,4.2,1.8c1.7,0,3.1-0.6,4.1-1.8
			c1.1-1.2,1.6-3,1.6-5.5c0-2.4-0.5-4.2-1.6-5.4c-1.1-1.2-2.4-1.8-4.2-1.8s-3.1,0.6-4.2,1.8C181.6,466.6,181.1,468.4,181.1,470.8z"
			/>
		<path class="st0" d="M200.4,481.3v-20.9h8.9c2.2,0,3.9,0.2,4.9,0.6c1,0.4,1.8,1,2.4,2c0.6,1,0.9,2.1,0.9,3.3
			c0,1.6-0.5,2.9-1.4,3.9c-0.9,1-2.3,1.7-4.1,1.9c0.9,0.5,1.7,1.1,2.3,1.8s1.4,1.8,2.4,3.4l2.6,4.1h-5.1l-3.1-4.6
			c-1.1-1.6-1.8-2.7-2.2-3.1c-0.4-0.4-0.8-0.7-1.3-0.9c-0.4-0.2-1.2-0.2-2.1-0.2h-0.9v8.7L200.4,481.3L200.4,481.3z M204.6,469.2
			h3.1c2,0,3.3-0.1,3.8-0.3c0.5-0.2,0.9-0.5,1.2-0.9c0.3-0.4,0.4-0.9,0.4-1.6c0-0.7-0.2-1.3-0.6-1.7c-0.4-0.4-0.9-0.7-1.6-0.8
			c-0.3,0-1.4-0.1-3.1-0.1h-3.3L204.6,469.2L204.6,469.2z"/>
		<path class="st0" d="M221.4,460.4h7.7c1.7,0,3.1,0.1,4,0.4c1.2,0.4,2.3,1,3.2,1.9c0.9,0.9,1.5,2.1,2,3.4c0.5,1.3,0.7,3,0.7,4.9
			c0,1.7-0.2,3.2-0.6,4.5c-0.5,1.5-1.3,2.8-2.2,3.7c-0.7,0.7-1.7,1.3-3,1.7c-0.9,0.3-2.2,0.4-3.7,0.4h-8L221.4,460.4L221.4,460.4z
			 M225.6,463.9v13.9h3.2c1.2,0,2-0.1,2.6-0.2c0.7-0.2,1.3-0.5,1.7-0.9c0.5-0.4,0.8-1.1,1.1-2c0.3-0.9,0.4-2.2,0.4-3.8
			c0-1.6-0.1-2.9-0.4-3.7s-0.7-1.5-1.2-2c-0.5-0.5-1.2-0.8-2-1c-0.6-0.1-1.7-0.2-3.5-0.2L225.6,463.9L225.6,463.9z"/>
		<path class="st0" d="M242.1,481.3v-20.9h15.5v3.5h-11.3v4.6h10.5v3.5h-10.5v5.7H258v3.5H242.1z"/>
		<path class="st0" d="M261.2,481.3v-20.9h4.1l8.6,14v-14h3.9v20.9h-4.2l-8.4-13.7v13.7H261.2z"/>
		<path class="st0" d="M295.6,481.3v-8.8l-7.7-12.1h5l4.9,8.3l4.8-8.3h4.9l-7.7,12.2v8.8H295.6z"/>
		<path class="st0" d="M317.6,481.4v-20.9h6.8c2.6,0,4.2,0.1,5,0.3c1.2,0.3,2.2,1,3,2c0.8,1.1,1.2,2.4,1.2,4.1
			c0,1.3-0.2,2.4-0.7,3.2c-0.5,0.9-1.1,1.6-1.8,2.1c-0.7,0.5-1.5,0.8-2.2,1c-1,0.2-2.5,0.3-4.4,0.3h-2.8v7.9L317.6,481.4
			L317.6,481.4z M321.9,464v5.9h2.3c1.7,0,2.8-0.1,3.3-0.3c0.6-0.2,1-0.6,1.3-1c0.3-0.5,0.5-1,0.5-1.6c0-0.8-0.2-1.4-0.7-1.9
			c-0.4-0.5-1-0.8-1.7-0.9c-0.5-0.1-1.5-0.1-3-0.1L321.9,464L321.9,464z"/>
		<path class="st0" d="M355.5,481.3h-4.6l-1.8-4.8h-8.4l-1.7,4.8h-4.5l8.2-20.9h4.5L355.5,481.3z M347.8,473l-2.9-7.8L342,473H347.8
			z"/>
		<path class="st0" d="M362.3,481.3v-17.4H356v-3.5h16.6v3.5h-6.2v17.4H362.3z"/>
		<path class="st0" d="M375.3,481.3v-20.9h8.9c2.2,0,3.9,0.2,4.9,0.6c1,0.4,1.8,1,2.4,2c0.6,1,0.9,2.1,0.9,3.3
			c0,1.6-0.5,2.9-1.4,3.9c-0.9,1-2.3,1.7-4.1,1.9c0.9,0.5,1.7,1.1,2.3,1.8c0.6,0.6,1.4,1.8,2.4,3.4l2.6,4.1H389l-3.1-4.6
			c-1.1-1.6-1.8-2.7-2.2-3.1c-0.4-0.4-0.8-0.7-1.3-0.9c-0.4-0.2-1.2-0.2-2.1-0.2h-0.9v8.7L375.3,481.3L375.3,481.3z M379.5,469.2
			h3.1c2,0,3.3-0.1,3.8-0.3c0.5-0.2,0.9-0.5,1.2-0.9c0.3-0.4,0.4-0.9,0.4-1.6c0-0.7-0.2-1.3-0.6-1.7c-0.4-0.4-0.9-0.7-1.6-0.8
			c-0.3,0-1.4-0.1-3.1-0.1h-3.3L379.5,469.2L379.5,469.2z"/>
		<path class="st0" d="M396.1,481.3v-20.9h4.2v20.9H396.1z"/>
		<path class="st0" d="M423.3,481.3h-4.6l-1.8-4.8h-8.4l-1.7,4.8h-4.5l8.2-20.9h4.5L423.3,481.3z M415.5,473l-2.9-7.8l-2.8,7.8
			H415.5z"/>
	</g>
</g>
<g id="_x30_4">
</g>
<g id="_x30_5">
</g>
<rect x="687.5" y="186.5" class="st3" width="4000" height="463.5"/>
<g class="st4">
	<path class="st0" d="M832.1,300.9l23.3,5.9c-4.9,19.1-13.7,33.7-26.4,43.8c-12.7,10.1-28.2,15.1-46.5,15.1
		c-19,0-34.4-3.9-46.3-11.6c-11.9-7.7-20.9-18.9-27.1-33.6c-6.2-14.7-9.3-30.4-9.3-47.2c0-18.3,3.5-34.3,10.5-48
		c7-13.7,17-24,29.9-31.1c12.9-7.1,27.2-10.6,42.7-10.6c17.6,0,32.4,4.5,44.4,13.5c12,9,20.4,21.6,25.1,37.8l-22.9,5.4
		c-4.1-12.8-10-22.1-17.8-28c-7.8-5.8-17.5-8.8-29.3-8.8c-13.5,0-24.8,3.2-33.9,9.7c-9.1,6.5-15.5,15.2-19.2,26.1
		c-3.7,10.9-5.5,22.2-5.5,33.8c0,15,2.2,28,6.5,39.2c4.4,11.2,11.2,19.5,20.4,25c9.2,5.5,19.2,8.3,29.9,8.3
		c13.1,0,24.1-3.8,33.2-11.3C822.8,326.9,828.9,315.7,832.1,300.9z"/>
	<path class="st0" d="M865.8,362.6l67.6-176.1h25.1l72.1,176.1H1004l-20.5-53.3h-73.6l-19.3,53.3H865.8z M916.6,290.3h59.7
		l-18.4-48.8c-5.6-14.8-9.8-27-12.5-36.5c-2.2,11.3-5.4,22.5-9.5,33.6L916.6,290.3z"/>
	<path class="st0" d="M1050.5,362.6V186.5h78.1c15.7,0,27.6,1.6,35.8,4.7c8.2,3.2,14.7,8.8,19.6,16.8c4.9,8,7.3,16.9,7.3,26.5
		c0,12.5-4,23-12.1,31.6c-8.1,8.6-20.6,14-37.5,16.3c6.2,3,10.8,5.9,14.1,8.8c6.8,6.2,13.3,14.1,19.3,23.4l30.6,47.9h-29.3
		l-23.3-36.6c-6.8-10.6-12.4-18.7-16.8-24.3c-4.4-5.6-8.3-9.5-11.8-11.8c-3.5-2.2-7-3.8-10.6-4.7c-2.6-0.6-7-0.8-13-0.8h-27v78.2
		L1050.5,362.6L1050.5,362.6z M1073.8,264.3h50.1c10.6,0,19-1.1,25-3.3c6-2.2,10.6-5.7,13.7-10.6c3.1-4.8,4.7-10.1,4.7-15.8
		c0-8.3-3-15.2-9.1-20.5c-6-5.4-15.6-8-28.6-8h-55.7L1073.8,264.3L1073.8,264.3z"/>
	<path class="st0" d="M1209.5,362.6l67.6-176.1h25.1l72.1,176.1h-26.5l-20.5-53.3h-73.6l-19.3,53.3H1209.5z M1260.3,290.3h59.7
		l-18.4-48.8c-5.6-14.8-9.8-27-12.5-36.5c-2.2,11.3-5.4,22.5-9.5,33.6L1260.3,290.3z"/>
	<path class="st0" d="M1392.9,362.6V186.5h66.1c13.5,0,24.2,1.8,32.4,5.3c8.1,3.6,14.5,9.1,19.1,16.5c4.6,7.4,6.9,15.2,6.9,23.2
		c0,7.5-2,14.6-6.1,21.3c-4.1,6.6-10.3,12-18.5,16.1c10.6,3.1,18.8,8.4,24.6,16c5.7,7.5,8.6,16.4,8.6,26.7c0,8.2-1.7,15.9-5.2,23
		c-3.5,7.1-7.8,12.6-12.9,16.4c-5.1,3.8-11.6,6.7-19.3,8.7c-7.7,2-17.2,2.9-28.4,2.9L1392.9,362.6L1392.9,362.6z M1416.2,260.5h38.1
		c10.3,0,17.7-0.7,22.2-2c5.9-1.8,10.4-4.7,13.4-8.8c3-4.1,4.5-9.2,4.5-15.4c0-5.8-1.4-11-4.2-15.4c-2.8-4.4-6.8-7.5-12-9.1
		c-5.2-1.6-14.1-2.5-26.8-2.5h-35.2L1416.2,260.5L1416.2,260.5z M1416.2,341.9h43.8c7.5,0,12.8-0.3,15.9-0.8c5.4-1,9.8-2.6,13.5-4.8
		c3.6-2.2,6.6-5.5,8.9-9.8c2.3-4.3,3.5-9.2,3.5-14.8c0-6.6-1.7-12.3-5-17.1s-8-8.2-14-10.2c-6-2-14.6-2.9-25.8-2.9h-40.7
		L1416.2,341.9L1416.2,341.9z"/>
	<path class="st0" d="M1562.9,362.6V186.5h23.3v176.1H1562.9z"/>
	<path class="st0" d="M1628,362.6V186.5h23.9l92.5,138.3V186.5h22.3v176.1h-23.9l-92.5-138.4v138.4H1628z"/>
	<path class="st0" d="M1807.4,362.6V186.5h127.3v20.8h-104v53.9h97.4v20.7h-97.4v59.9h108.1v20.8L1807.4,362.6L1807.4,362.6z"/>
	<path class="st0" d="M1972.3,362.6V186.5h78.1c15.7,0,27.6,1.6,35.8,4.7c8.2,3.2,14.7,8.8,19.6,16.8c4.9,8,7.3,16.9,7.3,26.5
		c0,12.5-4,23-12.1,31.6c-8.1,8.6-20.6,14-37.5,16.3c6.2,3,10.9,5.9,14.1,8.8c6.8,6.2,13.3,14.1,19.3,23.4l30.6,47.9h-29.3
		l-23.3-36.6c-6.8-10.6-12.4-18.7-16.8-24.3c-4.4-5.6-8.3-9.5-11.8-11.8c-3.5-2.2-7-3.8-10.6-4.7c-2.6-0.6-7-0.8-13-0.8h-27v78.2
		L1972.3,362.6L1972.3,362.6z M1995.6,264.3h50.1c10.6,0,19-1.1,25-3.3c6-2.2,10.6-5.7,13.7-10.6c3.1-4.8,4.7-10.1,4.7-15.8
		c0-8.3-3-15.2-9.1-20.5c-6-5.4-15.6-8-28.6-8h-55.7L1995.6,264.3L1995.6,264.3z"/>
	<path class="st0" d="M2143.5,276.9c0-29.2,7.8-52.1,23.5-68.6c15.7-16.5,36-24.8,60.8-24.8c16.3,0,30.9,3.9,44,11.7
		c13.1,7.8,23,18.6,29.8,32.5c6.8,13.9,10.3,29.6,10.3,47.3c0,17.9-3.6,33.8-10.8,47.9c-7.2,14.1-17.4,24.8-30.6,32
		c-13.2,7.2-27.5,10.9-42.8,10.9c-16.6,0-31.4-4-44.4-12c-13.1-8-22.9-18.9-29.7-32.8C2146.9,307,2143.5,292.3,2143.5,276.9z
		 M2167.6,277.2c0,21.2,5.7,37.9,17.1,50.1c11.4,12.2,25.7,18.3,42.9,18.3c17.5,0,32-6.2,43.3-18.5c11.3-12.3,17-29.8,17-52.5
		c0-14.3-2.4-26.8-7.3-37.5c-4.8-10.7-11.9-19-21.3-24.9c-9.3-5.9-19.8-8.8-31.4-8.8c-16.5,0-30.7,5.7-42.6,17
		C2173.5,231.8,2167.6,250.7,2167.6,277.2z"/>
	<path class="st0" d="M2335,306.1l22-1.9c1,8.8,3.5,16,7.3,21.7c3.8,5.6,9.7,10.2,17.7,13.7c8,3.5,17,5.2,27,5.2
		c8.9,0,16.7-1.3,23.5-4c6.8-2.6,11.9-6.3,15.2-10.9c3.3-4.6,5-9.6,5-15.1c0-5.5-1.6-10.3-4.8-14.5c-3.2-4.1-8.5-7.6-15.9-10.4
		c-4.7-1.8-15.2-4.7-31.4-8.6c-16.2-3.9-27.5-7.5-34-11c-8.4-4.4-14.7-9.9-18.8-16.4c-4.1-6.5-6.2-13.8-6.2-21.9
		c0-8.9,2.5-17.2,7.6-24.9c5-7.7,12.4-13.6,22.1-17.6c9.7-4,20.5-6,32.3-6c13.1,0,24.6,2.1,34.5,6.3c10,4.2,17.6,10.4,23,18.6
		c5.4,8.2,8.2,17.4,8.6,27.7l-22.3,1.7c-1.2-11.1-5.3-19.5-12.2-25.2c-6.9-5.7-17.2-8.5-30.7-8.5c-14.1,0-24.4,2.6-30.8,7.7
		c-6.4,5.2-9.7,11.4-9.7,18.7c0,6.3,2.3,11.5,6.8,15.6c4.5,4.1,16.2,8.3,35.1,12.6c18.9,4.3,31.9,8,39,11.2
		c10.2,4.7,17.8,10.7,22.7,18c4.9,7.2,7.3,15.6,7.3,25c0,9.4-2.7,18.2-8,26.5c-5.4,8.3-13.1,14.7-23.1,19.3
		c-10.1,4.6-21.4,6.9-33.9,6.9c-15.9,0-29.3-2.3-40.1-7c-10.8-4.6-19.2-11.6-25.3-21C2338.6,328.4,2335.3,317.8,2335,306.1z"/>
	<path class="st0" d="M2577.3,362.6V186.5h60.7c13.7,0,24.1,0.8,31.4,2.5c10.1,2.3,18.7,6.5,25.8,12.6c9.3,7.8,16.2,17.9,20.8,30.1
		c4.6,12.2,6.9,26.2,6.9,41.9c0,13.4-1.6,25.2-4.7,35.6s-7.1,18.9-12,25.6c-4.9,6.8-10.2,12.1-16,16c-5.8,3.9-12.8,6.8-21,8.8
		c-8.2,2-17.6,3-28.3,3H2577.3z M2600.6,341.9h37.6c11.6,0,20.7-1.1,27.3-3.2c6.6-2.2,11.9-5.2,15.8-9.1c5.5-5.5,9.8-13,12.9-22.3
		c3.1-9.3,4.6-20.6,4.6-33.9c0-18.4-3-32.6-9.1-42.5c-6-9.9-13.4-16.5-22-19.9c-6.2-2.4-16.3-3.6-30.1-3.6h-37L2600.6,341.9
		L2600.6,341.9z"/>
	<path class="st0" d="M2756.5,362.6V186.5h127.3v20.8h-104v53.9h97.4v20.7h-97.4v59.9h108.1v20.8L2756.5,362.6L2756.5,362.6z"/>
	<path class="st0" d="M3116,300.9l23.3,5.9c-4.9,19.1-13.7,33.7-26.4,43.8c-12.7,10.1-28.2,15.1-46.5,15.1c-19,0-34.4-3.9-46.3-11.6
		c-11.9-7.7-20.9-18.9-27.1-33.6c-6.2-14.7-9.3-30.4-9.3-47.2c0-18.3,3.5-34.3,10.5-48c7-13.7,17-24,29.9-31.1
		c12.9-7.1,27.2-10.6,42.7-10.6c17.6,0,32.4,4.5,44.4,13.5c12,9,20.4,21.6,25.1,37.8l-22.9,5.4c-4.1-12.8-10-22.1-17.8-28
		c-7.8-5.8-17.5-8.8-29.3-8.8c-13.5,0-24.8,3.2-33.9,9.7c-9.1,6.5-15.5,15.2-19.2,26.1c-3.7,10.9-5.5,22.2-5.5,33.8
		c0,15,2.2,28,6.5,39.2c4.4,11.2,11.1,19.5,20.4,25c9.2,5.5,19.2,8.3,29.9,8.3c13.1,0,24.1-3.8,33.2-11.3
		C3106.7,326.9,3112.8,315.7,3116,300.9z"/>
	<path class="st0" d="M3169.7,362.6V186.5h23.3v72.3h91.5v-72.3h23.3v176.1h-23.3v-83H3193v83H3169.7z"/>
	<path class="st0" d="M3351.6,362.6V186.5h23.3v176.1H3351.6z"/>
	<path class="st0" d="M3416,362.6V186.5h23.3v155.3h86.7v20.8H3416z"/>
	<path class="st0" d="M3555.3,362.6V186.5h127.3v20.8h-104v53.9h97.4v20.7h-97.4v59.9h108.1v20.8L3555.3,362.6L3555.3,362.6z"/>
</g>
</svg>
