<svg width="64" height="64" viewBox="0 0 64 64" xmlns="http://www.w3.org/2000/svg">
  <!-- Destellos -->
  <line x1="46" y1="24" x2="54" y2="24" stroke="#2ECC71" stroke-width="3" stroke-linecap="round"></line>
  <line x1="46" y1="32" x2="54" y2="32" stroke="#2ECC71" stroke-width="3" stroke-linecap="round"></line>
  <line x1="10" y1="24" x2="18" y2="24" stroke="#2ECC71" stroke-width="3" stroke-linecap="round"></line>
  <line x1="10" y1="32" x2="18" y2="32" stroke="#2ECC71" stroke-width="3" stroke-linecap="round"></line>

  <!-- Base -->
  <rect x="10" y="40" width="34" height="12" rx="4" fill="#27AE60"></rect>

  <!-- Cuerpo verde encendida -->
  <path d="M20 40 L20 22 C20 16 26 12 30 12 L36 12 C40 12 44 16 44 22 L44 40 Z" fill="#2ECC71"></path>

  <!-- Detalle interior luminoso -->
  <path d="M24 40 L24 24 C24 19 28 16 32 16 L36 16 C39 16 40 18 40 22 L40 40 Z" fill="#A8F5B8"></path>
</svg>
